<svg width="21" height="20" viewBox="0 0 21 20" fill="none" xmlns="http://www.w3.org/2000/svg">
<path d="M20.0854 8.10164C20.2016 8.76249 20.256 9.43788 20.256 10.1096C20.256 13.1162 19.1812 15.6579 17.3112 17.3791H17.3148C15.6772 18.8896 13.4296 19.7647 10.7643 19.7647C7.02795 19.7647 3.61109 17.6587 1.93353 14.3217C0.531925 11.5294 0.531922 8.23962 1.93352 5.44731C3.61109 2.1067 7.02795 0.000665938 10.7643 0.000665938C13.219 -0.0283828 15.5901 0.893915 17.3766 2.57148L14.5552 5.39284C13.5349 4.41971 12.1732 3.88957 10.7643 3.91135C8.18627 3.91135 5.99672 5.65065 5.21603 7.9927C4.80209 9.22001 4.80209 10.549 5.21603 11.7763H5.21967C6.00398 14.1147 8.1899 15.854 10.768 15.854C12.1006 15.854 13.2444 15.5127 14.1304 14.9099H14.1267C15.1689 14.22 15.8806 13.1343 16.1021 11.907H10.7643V8.10164H20.0854Z" fill="#2196F3"/>
</svg>
