<svg width="20" height="20" viewBox="0 0 20 20" fill="none" xmlns="http://www.w3.org/2000/svg">
<path d="M9.88328 0.235291C7.19937 0.235291 6.86254 0.247026 5.80841 0.294997C4.75634 0.343174 4.03822 0.509735 3.40986 0.754119C2.75988 1.00653 2.20852 1.34418 1.65922 1.89369C1.10951 2.44299 0.771861 2.99435 0.518623 3.64412C0.27362 4.27268 0.106854 4.99102 0.0595005 6.04267C0.012353 7.0968 0 7.43384 0 10.1177C0 12.8017 0.0119415 13.1375 0.0597067 14.1916C0.10809 15.2437 0.27465 15.9618 0.518829 16.5901C0.771449 17.2401 1.1091 17.7915 1.65861 18.3408C2.2077 18.8905 2.75906 19.229 3.40862 19.4814C4.0374 19.7258 4.75573 19.8923 5.80759 19.9405C6.86172 19.9885 7.19834 20.0002 9.88204 20.0002C12.5662 20.0002 12.902 19.9885 13.9561 19.9405C15.0082 19.8923 15.7271 19.7258 16.3559 19.4814C17.0056 19.229 17.5562 18.8905 18.1053 18.3408C18.655 17.7915 18.9926 17.2401 19.2459 16.5903C19.4888 15.9618 19.6556 15.2434 19.705 14.1918C19.7524 13.1377 19.7647 12.8017 19.7647 10.1177C19.7647 7.43384 19.7524 7.09701 19.705 6.04288C19.6556 4.99081 19.4888 4.27268 19.2459 3.64433C18.9926 2.99435 18.655 2.44299 18.1053 1.89369C17.5556 1.34398 17.0059 1.00633 16.3553 0.754119C15.7253 0.509735 15.0067 0.343174 13.9546 0.294997C12.9005 0.247026 12.5649 0.235291 9.88019 0.235291H9.88328ZM8.99674 2.01619C9.25986 2.01578 9.55345 2.01619 9.88328 2.01619C12.5219 2.01619 12.8346 2.02566 13.8766 2.07302C14.8402 2.11707 15.3631 2.27808 15.7115 2.41334C16.1726 2.59246 16.5014 2.80658 16.8471 3.15247C17.193 3.49835 17.4071 3.82777 17.5867 4.28895C17.7219 4.63689 17.8831 5.15984 17.927 6.12338C17.9743 7.16516 17.9846 7.4781 17.9846 10.1155C17.9846 12.7529 17.9743 13.0658 17.927 14.1076C17.8829 15.0711 17.7219 15.5941 17.5867 15.942C17.4075 16.4032 17.193 16.7316 16.8471 17.0773C16.5012 17.4231 16.1728 17.6373 15.7115 17.8164C15.3635 17.9523 14.8402 18.1129 13.8766 18.1569C12.8348 18.2043 12.5219 18.2146 9.88328 18.2146C7.24446 18.2146 6.93172 18.2043 5.88994 18.1569C4.9264 18.1124 4.40346 17.9514 4.0549 17.8162C3.59371 17.6371 3.2643 17.4229 2.91841 17.0771C2.57253 16.7312 2.35841 16.4026 2.17888 15.9412C2.04361 15.5932 1.8824 15.0703 1.83855 14.1068C1.7912 13.065 1.78172 12.752 1.78172 10.113C1.78172 7.47398 1.7912 7.16269 1.83855 6.12091C1.88261 5.15737 2.04361 4.63442 2.17888 4.28607C2.358 3.82489 2.57253 3.49547 2.91841 3.14958C3.2643 2.8037 3.59371 2.58958 4.0549 2.41005C4.40325 2.27416 4.9264 2.11357 5.88994 2.06931C6.8016 2.02813 7.1549 2.01578 8.99674 2.01372V2.01619ZM15.1585 3.65709C14.5037 3.65709 13.9726 4.18765 13.9726 4.84257C13.9726 5.49729 14.5037 6.02847 15.1585 6.02847C15.8132 6.02847 16.3443 5.49729 16.3443 4.84257C16.3443 4.18786 15.8132 3.65668 15.1585 3.65668V3.65709ZM9.88328 5.04269C7.08057 5.04269 4.80823 7.31504 4.80823 10.1177C4.80823 12.9205 7.08057 15.1918 9.88328 15.1918C12.686 15.1918 14.9575 12.9205 14.9575 10.1177C14.9575 7.31504 12.6858 5.04269 9.88307 5.04269H9.88328ZM9.88328 6.82359C11.7025 6.82359 13.1774 8.29834 13.1774 10.1177C13.1774 11.9369 11.7025 13.4119 9.88328 13.4119C8.06388 13.4119 6.58913 11.9369 6.58913 10.1177C6.58913 8.29834 8.06388 6.82359 9.88328 6.82359V6.82359Z" fill="#2196F3"/>
</svg>
