<svg width="21" height="20" viewBox="0 0 21 20" fill="none" xmlns="http://www.w3.org/2000/svg">
<path d="M7.15001 18.5294C14.6082 18.5294 18.6893 12.3493 18.6893 6.99898C18.6893 6.82511 18.6893 6.65125 18.6814 6.47738C19.4723 5.90837 20.1604 5.1892 20.7061 4.3752C19.9785 4.69922 19.1955 4.9126 18.3729 5.01534C19.2113 4.51745 19.8519 3.71925 20.1604 2.77089C19.3774 3.23717 18.5074 3.56909 17.582 3.75086C16.8386 2.96056 15.7867 2.47058 14.6241 2.47058C12.3858 2.47058 10.5667 4.28826 10.5667 6.5248C10.5667 6.84092 10.6063 7.14913 10.6695 7.44945C7.30028 7.28349 4.31066 5.66338 2.30967 3.21346C1.96167 3.81408 1.76395 4.50955 1.76395 5.25242C1.76395 6.65915 2.48367 7.89992 3.56721 8.62699C2.90285 8.60328 2.27804 8.42151 1.73231 8.1212C1.73231 8.13701 1.73231 8.15281 1.73231 8.17652C1.73231 10.1365 3.13221 11.7803 4.98293 12.1517C4.64284 12.2465 4.28693 12.294 3.91521 12.294C3.65421 12.294 3.40112 12.2703 3.15594 12.2228C3.67003 13.835 5.17275 15.0047 6.94437 15.0363C5.55238 16.1269 3.80448 16.7749 1.90631 16.7749C1.58204 16.7749 1.25777 16.7591 0.941406 16.7196C2.72885 17.8577 4.86429 18.5294 7.15001 18.5294Z" fill="#2196F3"/>
</svg>
